<svg xmlns="http://www.w3.org/2000/svg" width="191" height="56" viewBox="0 0 191 56">
  <g id="Group_17234" data-name="Group 17234" transform="translate(14790 -905)">
    <rect id="Rectangle_11445" data-name="Rectangle 11445" width="191" height="56" rx="5" transform="translate(-14790 905)" fill="#f7f8fa" opacity="0"/>
    <g id="layer1" transform="translate(-14770 921.36)">
      <g id="g16689">
        <path id="Fill-1" d="M118.129,263.986a2,2,0,0,1-.078.61,2.225,2.225,0,0,1-2.142,1.442,1.423,1.423,0,0,1-1.579-1.492c0-1.549,1.773-1.978,3.8-1.968Zm3.356-2.7c0-2.556-1.139-4.8-4.981-4.8a9.394,9.394,0,0,0-4.394,1.006l.623,2.054a6.644,6.644,0,0,1,3.208-.865c1.949,0,2.269,1.06,2.269,1.743v.161c-4.254-.008-6.942,1.406-6.942,4.285a3.477,3.477,0,0,0,3.753,3.406,4.34,4.34,0,0,0,3.419-1.459h.073s.483,1.951,3.159,1.2a15.954,15.954,0,0,1-.187-2.717Zm15.638-1.862v-2.873h-2.766V253h-3.135v11.077a4.512,4.512,0,0,0,.944,3.25,3.6,3.6,0,0,0,2.584.942,7.851,7.851,0,0,0,2.3-.327l-.043-2.382a5,5,0,0,1-1.2.136c-1.083,0-1.446-.664-1.446-2.035v-4.238Zm-11.136-.561H125.9v-2.128h-2.881v11.279h3.28v-5.775a3.774,3.774,0,0,1,.073-.833,2.449,2.449,0,0,1,2.59-1.982,6.553,6.553,0,0,1,.944.08v-2.952a3.284,3.284,0,0,0-.721-.07,3.451,3.451,0,0,0-3.2,2.381Zm-19.735-2.382a4.387,4.387,0,0,0-2.318.612,4.882,4.882,0,0,0-1.489,1.4H102.4a3.352,3.352,0,0,0-3.237-2.017,3.722,3.722,0,0,0-3.42,1.788h-.048v-1.533H92.659v11.279h3.2V261.4a2.526,2.526,0,0,1,.152-.923,2.139,2.139,0,0,1,1.936-1.445c1.289,0,1.894,1.047,1.894,2.556v6.428h3.19v-6.695a3.01,3.01,0,0,1,.133-.914,2,2,0,0,1,1.918-1.375c1.3,0,1.93,1.028,1.93,2.8v6.179h3.19v-6.643C110.2,257.867,108.345,256.481,106.252,256.481Zm-23.7,7.5a1.994,1.994,0,0,1-.078.61,2.227,2.227,0,0,1-2.149,1.442,1.421,1.421,0,0,1-1.573-1.492c0-1.549,1.773-1.978,3.8-1.968Zm3.356-2.7c0-2.556-1.138-4.8-4.982-4.8a9.409,9.409,0,0,0-4.395,1.006l.625,2.054a6.644,6.644,0,0,1,3.208-.865c1.949,0,2.269,1.06,2.269,1.743v.161c-4.254-.008-6.939,1.406-6.939,4.285a3.474,3.474,0,0,0,3.744,3.406,4.33,4.33,0,0,0,3.419-1.459h.073s.49,1.951,3.165,1.2a15.948,15.948,0,0,1-.187-2.717ZM73.286,253l-1.412,6.491c-.379,1.889-.722,3.367-.989,5.1h-.047c-.24-1.712-.547-3.129-.933-4.97L68.437,253H64.959l-1.571,6.449c-.444,1.96-.862,3.543-1.126,5.212h-.047c-.271-1.571-.633-3.562-1.025-5.457,0,0-.932-4.613-1.26-6.2H56.416s2.778,10.924,3.221,12.7c.517,2.069,1.448,2.832,4.136,2.317l1.735-6.773a46.165,46.165,0,0,0,1.017-4.592h.049a43.5,43.5,0,0,0,.842,4.6s.706,3.074,1.068,4.69,1.371,2.631,4.005,2.076L76.622,253Zm14.356,15.015h3.177V253H87.642Z" transform="translate(-34.604 -249.728)" fill="#2f2851" fill-rule="evenodd"/>
        <path id="Fill-3" d="M148.509,265.857h-5.944V253h-2.781v15.269h8.725Z" transform="translate(-30.801 -249.728)" fill="#2f2851" fill-rule="evenodd"/>
        <path id="Fill-5" d="M155.635,263.764a2.194,2.194,0,0,1-.074.621,2.111,2.111,0,0,1-2.021,1.468,1.391,1.391,0,0,1-1.491-1.519c0-1.577,1.673-2.014,3.587-2Zm3.167-2.748c0-2.6-1.075-4.89-4.7-4.89a8.345,8.345,0,0,0-4.144,1.024l.587,2.091a5.925,5.925,0,0,1,3.027-.88c1.839,0,2.141,1.078,2.141,1.773v.164c-4.015-.008-6.551,1.431-6.551,4.36a3.4,3.4,0,0,0,3.541,3.466,3.964,3.964,0,0,0,3.227-1.485H156s.456,1.985,2.98,1.225a17.573,17.573,0,0,1-.176-2.766Z" transform="translate(-30.372 -249.591)" fill="#2f2851" fill-rule="evenodd"/>
        <path id="Fill-7" d="M166.539,266.037a2.745,2.745,0,0,1-2.664-1.978,2.992,2.992,0,0,1-.072-.667v-1.818a3.229,3.229,0,0,1,.1-.736,2.78,2.78,0,0,1,2.662-2.071c2,0,3.006,1.611,3.006,3.59,0,2.254-1.148,3.68-3.03,3.68m1.124-9.478a4.388,4.388,0,0,0-3.811,1.795H163.8V253H160.8v11.864c0,.342,0,.6.008.83a14.8,14.8,0,0,1-.181,2.289c2.379.669,3.078-.81,3.2-1.143a4.25,4.25,0,0,0,3.4,1.43c2.688,0,5.4-2,5.4-6.028.025-3.4-2.052-5.682-4.96-5.682" transform="translate(-29.855 -249.728)" fill="#2f2851" fill-rule="evenodd"/>
        <path id="Fill-9" d="M177.535,261.015c-1.564-.519-2.143-.874-2.143-1.605,0-.709.6-1.2,1.714-1.2a5.8,5.8,0,0,1,2.6.661l.6-2.054a7.617,7.617,0,0,0-3.253-.686c-2.85,0-4.641,1.582-4.641,3.614-.024,1.346.984,2.574,3.38,3.353,1.512.5,2.017.9,2.017,1.677,0,.757-.6,1.276-1.968,1.276a7.273,7.273,0,0,1-3.152-.827l-.6,2.1a8.349,8.349,0,0,0,3.731.8c3.254,0,4.993-1.51,4.993-3.589-.024-1.7-1.058-2.763-3.278-3.519" transform="translate(-29.321 -249.591)" fill="#2f2851" fill-rule="evenodd"/>
        <path id="Fill-12" d="M38.847,265.132l3.679-14.168h.547l-3.54,13.62h7.774a.274.274,0,0,1,0,.548Zm12.8-2.97H42.752l3.21-12.288H39.427L35.7,264.155a2.948,2.948,0,0,0,2.952,3.905h4.053l-2.592,10a.115.115,0,0,0,.2.1L51.875,262.63a.293.293,0,0,0-.228-.468Z" transform="translate(-35.575 -249.874)" fill="#2f2851" fill-rule="evenodd"/>
      </g>
    </g>
  </g>
</svg>
